<mxfile host="Electron" agent="Mozilla/5.0 (Windows NT 10.0; Win64; x64) AppleWebKit/537.36 (KHTML, like Gecko) draw.io/22.1.18 Chrome/120.0.6099.199 Electron/28.1.2 Safari/537.36" modified="2025-04-08T11:45:44.263Z" version="22.1.18" etag="LAhUfPBNeWJQAmzRJRCA" type="device">
  <diagram name="Seite-1" id="2i8UVl7ugPdcsJV7BgEA">
    <mxGraphModel dx="2261" dy="2005" grid="1" gridSize="10" guides="1" tooltips="1" connect="1" arrows="1" fold="1" page="1" pageScale="1" pageWidth="827" pageHeight="1169" math="0" shadow="0">
      <root>
        <mxCell id="0" />
        <mxCell id="1" parent="0" />
        <mxCell id="4MKlCdPZLCAiAoe8mpV1-1" value="" style="rounded=0;whiteSpace=wrap;html=1;fillColor=none;fontColor=#333333;strokeColor=#666666;" parent="1" vertex="1">
          <mxGeometry x="294" y="290" width="196" height="130" as="geometry" />
        </mxCell>
        <mxCell id="4MKlCdPZLCAiAoe8mpV1-2" value="Pi 1" style="text;html=1;align=center;verticalAlign=middle;whiteSpace=wrap;rounded=0;" parent="1" vertex="1">
          <mxGeometry x="362" y="290" width="60" height="30" as="geometry" />
        </mxCell>
        <mxCell id="4MKlCdPZLCAiAoe8mpV1-14" style="edgeStyle=orthogonalEdgeStyle;rounded=0;orthogonalLoop=1;jettySize=auto;html=1;entryX=1;entryY=0.5;entryDx=0;entryDy=0;" parent="1" source="4MKlCdPZLCAiAoe8mpV1-3" target="4MKlCdPZLCAiAoe8mpV1-11" edge="1">
          <mxGeometry relative="1" as="geometry" />
        </mxCell>
        <mxCell id="4MKlCdPZLCAiAoe8mpV1-29" value="Topic:&lt;br&gt;QR Code&amp;nbsp;&lt;div&gt;&amp;amp;&lt;/div&gt;&lt;div&gt;Kick out&lt;/div&gt;" style="edgeLabel;html=1;align=center;verticalAlign=middle;resizable=0;points=[];" parent="4MKlCdPZLCAiAoe8mpV1-14" vertex="1" connectable="0">
          <mxGeometry x="0.066" y="2" relative="1" as="geometry">
            <mxPoint y="28" as="offset" />
          </mxGeometry>
        </mxCell>
        <mxCell id="4MKlCdPZLCAiAoe8mpV1-20" style="edgeStyle=orthogonalEdgeStyle;rounded=0;orthogonalLoop=1;jettySize=auto;html=1;" parent="1" source="4MKlCdPZLCAiAoe8mpV1-3" target="4MKlCdPZLCAiAoe8mpV1-18" edge="1">
          <mxGeometry relative="1" as="geometry">
            <Array as="points">
              <mxPoint x="360" y="120" />
              <mxPoint x="330" y="120" />
            </Array>
          </mxGeometry>
        </mxCell>
        <mxCell id="4MKlCdPZLCAiAoe8mpV1-28" value="Topic:&lt;br&gt;Lager Feedback" style="edgeLabel;html=1;align=center;verticalAlign=middle;resizable=0;points=[];" parent="4MKlCdPZLCAiAoe8mpV1-20" vertex="1" connectable="0">
          <mxGeometry x="-0.1394" y="2" relative="1" as="geometry">
            <mxPoint x="-48" y="2" as="offset" />
          </mxGeometry>
        </mxCell>
        <mxCell id="4MKlCdPZLCAiAoe8mpV1-3" value="Broker" style="rounded=1;whiteSpace=wrap;html=1;fillColor=#fff2cc;strokeColor=#d6b656;" parent="1" vertex="1">
          <mxGeometry x="332" y="330" width="120" height="60" as="geometry" />
        </mxCell>
        <mxCell id="4MKlCdPZLCAiAoe8mpV1-4" value="" style="rounded=0;whiteSpace=wrap;html=1;fillColor=none;fontColor=#333333;strokeColor=#666666;" parent="1" vertex="1">
          <mxGeometry x="590" y="290" width="520" height="130" as="geometry" />
        </mxCell>
        <mxCell id="4MKlCdPZLCAiAoe8mpV1-5" value="Pi 2" style="text;html=1;align=center;verticalAlign=middle;whiteSpace=wrap;rounded=0;" parent="1" vertex="1">
          <mxGeometry x="660" y="290" width="60" height="30" as="geometry" />
        </mxCell>
        <mxCell id="4MKlCdPZLCAiAoe8mpV1-9" style="edgeStyle=orthogonalEdgeStyle;rounded=0;orthogonalLoop=1;jettySize=auto;html=1;" parent="1" source="4MKlCdPZLCAiAoe8mpV1-6" target="4MKlCdPZLCAiAoe8mpV1-3" edge="1">
          <mxGeometry relative="1" as="geometry" />
        </mxCell>
        <mxCell id="4MKlCdPZLCAiAoe8mpV1-12" value="Topic:&lt;br&gt;QR Code" style="edgeLabel;html=1;align=center;verticalAlign=middle;resizable=0;points=[];" parent="4MKlCdPZLCAiAoe8mpV1-9" vertex="1" connectable="0">
          <mxGeometry x="0.1071" y="3" relative="1" as="geometry">
            <mxPoint x="13" y="-23" as="offset" />
          </mxGeometry>
        </mxCell>
        <mxCell id="4MKlCdPZLCAiAoe8mpV1-6" value="Publisher" style="rounded=1;whiteSpace=wrap;html=1;fillColor=#d5e8d4;strokeColor=#82b366;" parent="1" vertex="1">
          <mxGeometry x="630" y="330" width="120" height="60" as="geometry" />
        </mxCell>
        <mxCell id="4MKlCdPZLCAiAoe8mpV1-8" style="edgeStyle=orthogonalEdgeStyle;rounded=0;orthogonalLoop=1;jettySize=auto;html=1;" parent="1" source="4MKlCdPZLCAiAoe8mpV1-7" target="4MKlCdPZLCAiAoe8mpV1-6" edge="1">
          <mxGeometry relative="1" as="geometry" />
        </mxCell>
        <mxCell id="4MKlCdPZLCAiAoe8mpV1-7" value="Qr Code Scanner" style="rounded=1;whiteSpace=wrap;html=1;" parent="1" vertex="1">
          <mxGeometry x="910" y="330" width="120" height="60" as="geometry" />
        </mxCell>
        <mxCell id="4MKlCdPZLCAiAoe8mpV1-10" value="" style="rounded=0;whiteSpace=wrap;html=1;fillColor=none;fontColor=#333333;strokeColor=#666666;" parent="1" vertex="1">
          <mxGeometry x="-220" y="290" width="360" height="570" as="geometry" />
        </mxCell>
        <mxCell id="4MKlCdPZLCAiAoe8mpV1-36" style="edgeStyle=orthogonalEdgeStyle;rounded=0;orthogonalLoop=1;jettySize=auto;html=1;" parent="1" source="4MKlCdPZLCAiAoe8mpV1-11" target="4MKlCdPZLCAiAoe8mpV1-23" edge="1">
          <mxGeometry relative="1" as="geometry" />
        </mxCell>
        <mxCell id="4MKlCdPZLCAiAoe8mpV1-39" style="edgeStyle=orthogonalEdgeStyle;rounded=0;orthogonalLoop=1;jettySize=auto;html=1;entryX=0;entryY=0.5;entryDx=0;entryDy=0;" parent="1" source="4MKlCdPZLCAiAoe8mpV1-11" target="4MKlCdPZLCAiAoe8mpV1-31" edge="1">
          <mxGeometry relative="1" as="geometry">
            <Array as="points">
              <mxPoint x="-30" y="360" />
              <mxPoint x="-30" y="570" />
            </Array>
          </mxGeometry>
        </mxCell>
        <mxCell id="4MKlCdPZLCAiAoe8mpV1-40" style="edgeStyle=orthogonalEdgeStyle;rounded=0;orthogonalLoop=1;jettySize=auto;html=1;entryX=0;entryY=0.5;entryDx=0;entryDy=0;" parent="1" source="4MKlCdPZLCAiAoe8mpV1-11" target="4MKlCdPZLCAiAoe8mpV1-33" edge="1">
          <mxGeometry relative="1" as="geometry">
            <Array as="points">
              <mxPoint x="-30" y="360" />
              <mxPoint x="-30" y="680" />
            </Array>
          </mxGeometry>
        </mxCell>
        <mxCell id="4MKlCdPZLCAiAoe8mpV1-42" style="edgeStyle=orthogonalEdgeStyle;rounded=0;orthogonalLoop=1;jettySize=auto;html=1;entryX=0;entryY=0.5;entryDx=0;entryDy=0;" parent="1" source="4MKlCdPZLCAiAoe8mpV1-11" target="4MKlCdPZLCAiAoe8mpV1-32" edge="1">
          <mxGeometry relative="1" as="geometry">
            <Array as="points">
              <mxPoint x="-30" y="360" />
              <mxPoint x="-30" y="790" />
            </Array>
          </mxGeometry>
        </mxCell>
        <mxCell id="4MKlCdPZLCAiAoe8mpV1-11" value="Subscriber" style="rounded=1;whiteSpace=wrap;html=1;fillColor=#e1d5e7;strokeColor=#9673a6;" parent="1" vertex="1">
          <mxGeometry y="330" width="120" height="60" as="geometry" />
        </mxCell>
        <mxCell id="4MKlCdPZLCAiAoe8mpV1-15" value="Arduino Wifi" style="text;html=1;align=center;verticalAlign=middle;whiteSpace=wrap;rounded=0;" parent="1" vertex="1">
          <mxGeometry x="30" y="290" width="60" height="30" as="geometry" />
        </mxCell>
        <mxCell id="4MKlCdPZLCAiAoe8mpV1-16" value="" style="rounded=0;whiteSpace=wrap;html=1;fillColor=none;fontColor=#333333;strokeColor=#666666;" parent="1" vertex="1">
          <mxGeometry x="253" y="-100" width="278" height="200" as="geometry" />
        </mxCell>
        <mxCell id="4MKlCdPZLCAiAoe8mpV1-17" value="MQTT App" style="text;html=1;align=center;verticalAlign=middle;whiteSpace=wrap;rounded=0;" parent="1" vertex="1">
          <mxGeometry x="362" y="-100" width="60" height="30" as="geometry" />
        </mxCell>
        <mxCell id="4MKlCdPZLCAiAoe8mpV1-18" value="Subscriber" style="rounded=1;whiteSpace=wrap;html=1;fillColor=#e1d5e7;strokeColor=#9673a6;" parent="1" vertex="1">
          <mxGeometry x="270" y="-30" width="120" height="60" as="geometry" />
        </mxCell>
        <mxCell id="4MKlCdPZLCAiAoe8mpV1-22" style="edgeStyle=orthogonalEdgeStyle;rounded=0;orthogonalLoop=1;jettySize=auto;html=1;entryX=0.75;entryY=0;entryDx=0;entryDy=0;" parent="1" source="4MKlCdPZLCAiAoe8mpV1-19" target="4MKlCdPZLCAiAoe8mpV1-3" edge="1">
          <mxGeometry relative="1" as="geometry" />
        </mxCell>
        <mxCell id="4MKlCdPZLCAiAoe8mpV1-26" value="Topic:&lt;br&gt;Kick out" style="edgeLabel;html=1;align=center;verticalAlign=middle;resizable=0;points=[];" parent="4MKlCdPZLCAiAoe8mpV1-22" vertex="1" connectable="0">
          <mxGeometry x="-0.3846" y="2" relative="1" as="geometry">
            <mxPoint x="18" y="16" as="offset" />
          </mxGeometry>
        </mxCell>
        <mxCell id="4MKlCdPZLCAiAoe8mpV1-19" value="Publisher" style="rounded=1;whiteSpace=wrap;html=1;fillColor=#d5e8d4;strokeColor=#82b366;" parent="1" vertex="1">
          <mxGeometry x="400" y="-30" width="120" height="60" as="geometry" />
        </mxCell>
        <mxCell id="4MKlCdPZLCAiAoe8mpV1-23" value="Bildschirm&lt;br&gt;&lt;br&gt;Wo Befinden sich&lt;div&gt;die Pakete (QR Codes)&lt;/div&gt;" style="rounded=1;whiteSpace=wrap;html=1;" parent="1" vertex="1">
          <mxGeometry x="-200" y="405" width="150" height="340" as="geometry" />
        </mxCell>
        <mxCell id="4MKlCdPZLCAiAoe8mpV1-25" value="In der Lage die Pakete aus dem Slot&lt;div&gt;raus zu werfen&lt;br&gt;&lt;br&gt;Platz machen&lt;/div&gt;" style="shape=hexagon;perimeter=hexagonPerimeter2;whiteSpace=wrap;html=1;fixedSize=1;" parent="1" vertex="1">
          <mxGeometry x="660" y="-90" width="240" height="180" as="geometry" />
        </mxCell>
        <mxCell id="4MKlCdPZLCAiAoe8mpV1-31" value="Slot 1&lt;div&gt;Lampe Grün&lt;/div&gt;" style="rounded=1;whiteSpace=wrap;html=1;" parent="1" vertex="1">
          <mxGeometry y="540" width="120" height="60" as="geometry" />
        </mxCell>
        <mxCell id="4MKlCdPZLCAiAoe8mpV1-32" value="Slot 2&lt;div&gt;Lampe Blau&lt;/div&gt;" style="rounded=1;whiteSpace=wrap;html=1;" parent="1" vertex="1">
          <mxGeometry y="760" width="120" height="60" as="geometry" />
        </mxCell>
        <mxCell id="4MKlCdPZLCAiAoe8mpV1-33" value="Slot 3&lt;div&gt;Lampe Rot&lt;/div&gt;" style="rounded=1;whiteSpace=wrap;html=1;" parent="1" vertex="1">
          <mxGeometry y="650" width="120" height="60" as="geometry" />
        </mxCell>
        <mxCell id="4MKlCdPZLCAiAoe8mpV1-37" style="edgeStyle=orthogonalEdgeStyle;rounded=0;orthogonalLoop=1;jettySize=auto;html=1;" parent="1" source="4MKlCdPZLCAiAoe8mpV1-35" target="4MKlCdPZLCAiAoe8mpV1-3" edge="1">
          <mxGeometry relative="1" as="geometry" />
        </mxCell>
        <mxCell id="4MKlCdPZLCAiAoe8mpV1-38" value="Topic:&amp;nbsp;&lt;div&gt;Lager Feedback&lt;/div&gt;" style="edgeLabel;html=1;align=center;verticalAlign=middle;resizable=0;points=[];" parent="4MKlCdPZLCAiAoe8mpV1-37" vertex="1" connectable="0">
          <mxGeometry x="-0.5146" y="-1" relative="1" as="geometry">
            <mxPoint x="17" y="19" as="offset" />
          </mxGeometry>
        </mxCell>
        <mxCell id="4MKlCdPZLCAiAoe8mpV1-35" value="Publisher" style="rounded=1;whiteSpace=wrap;html=1;fillColor=#d5e8d4;strokeColor=#82b366;" parent="1" vertex="1">
          <mxGeometry y="430" width="120" height="60" as="geometry" />
        </mxCell>
      </root>
    </mxGraphModel>
  </diagram>
</mxfile>
